<?xml version="1.0" standalone="no"?>
<!DOCTYPE svg PUBLIC "-//W3C//DTD SVG 20010904//EN"
 "http://www.w3.org/TR/2001/REC-SVG-20010904/DTD/svg10.dtd">
<svg version="1.0" xmlns="http://www.w3.org/2000/svg"
 width="255.000000pt" height="236.000000pt" viewBox="0 0 255.000000 236.000000"
 preserveAspectRatio="xMidYMid meet">

<g transform="translate(0.000000,236.000000) scale(0.100000,-0.100000)"
fill="#000000" stroke="none">
<path d="M842 2272 c-12 -8 -472 -1490 -472 -1523 0 -19 29 -33 52 -24 21 8
297 -80 312 -100 7 -9 21 -16 32 -13 16 3 56 122 253 763 171 556 230 764 223
775 -6 9 -22 14 -40 13 -42 -4 -293 75 -315 98 -20 21 -26 22 -45 11z m101
-72 c5 -4 -37 -153 -91 -331 -90 -294 -104 -344 -87 -327 3 3 50 149 104 324
l97 319 28 -2 c16 -1 30 -4 32 -5 1 -2 -24 -89 -56 -193 -33 -105 -60 -197
-60 -204 0 -39 22 20 75 194 32 105 59 191 60 193 2 2 32 -6 67 -16 51 -16 62
-24 60 -38 -4 -18 -313 -1029 -403 -1317 -40 -128 -41 -129 -67 -122 -15 4
-28 8 -29 9 -2 1 68 236 82 273 2 7 0 15 -4 17 -4 3 -28 -60 -52 -139 -40
-132 -45 -144 -64 -139 -11 4 -24 10 -28 14 -5 4 26 119 67 255 42 137 76 253
76 259 0 34 -26 -37 -90 -249 -40 -132 -76 -244 -81 -249 -6 -7 -118 17 -137
30 -2 1 426 1407 443 1452 5 13 41 8 58 -8z"/>
<path d="M911 1520 c-83 -263 -89 -285 -85 -289 2 -2 7 -2 10 1 10 11 125 400
121 411 -2 7 -23 -49 -46 -123z"/>
<path d="M1272 2248 c-9 -9 -12 -195 -12 -809 l0 -798 21 -6 c12 -4 26 -2 32
4 16 16 311 15 336 -1 15 -9 23 -9 35 1 14 12 16 96 16 807 0 791 0 793 -21
804 -15 8 -24 8 -34 0 -15 -12 -319 -10 -345 3 -9 4 -21 2 -28 -5z m118 -383
c0 -223 4 -345 10 -345 6 0 10 122 10 345 l0 345 30 0 30 0 0 -210 c0 -133 4
-210 10 -210 6 0 10 77 10 210 l0 210 70 0 70 0 0 -765 0 -765 -30 0 -30 0 0
150 c0 93 -4 150 -10 150 -6 0 -10 -57 -10 -150 l0 -150 -30 0 -30 0 0 270 c0
173 -4 270 -10 270 -6 0 -10 -97 -10 -270 l0 -270 -70 0 -70 0 0 765 0 765 30
0 30 0 0 -345z"/>
<path d="M1550 1460 c0 -140 4 -220 10 -220 6 0 10 80 10 220 0 140 -4 220
-10 220 -6 0 -10 -80 -10 -220z"/>
<path d="M1766 2244 c-14 -14 -16 -100 -16 -798 0 -856 -1 -834 54 -808 36 16
309 16 335 0 10 -6 26 -8 35 -5 15 6 16 76 16 811 0 722 -2 804 -16 810 -8 3
-24 1 -34 -4 -25 -13 -327 -13 -335 0 -9 14 -21 12 -39 -6z m124 -379 c0 -223
4 -345 10 -345 6 0 10 122 10 345 l0 345 30 0 30 0 0 -210 c0 -133 4 -210 10
-210 6 0 10 77 10 210 l0 210 70 0 70 0 0 -765 0 -765 -30 0 -30 0 0 144 c0
86 -4 147 -10 151 -6 4 -10 -47 -10 -144 l0 -151 -30 0 -30 0 0 270 c0 173 -4
270 -10 270 -6 0 -10 -97 -10 -270 l0 -270 -75 0 -75 0 0 765 0 765 35 0 35 0
0 -345z"/>
<path d="M2050 1460 c0 -145 3 -219 10 -215 6 4 10 87 10 215 0 128 -4 211
-10 215 -7 4 -10 -70 -10 -215z"/>
<path d="M1780 286 c0 -8 -15 -17 -36 -21 -54 -10 -84 -45 -84 -99 0 -37 5
-48 31 -70 17 -14 42 -26 55 -26 14 0 27 -7 30 -15 4 -8 16 -15 29 -15 13 0
25 7 29 15 3 8 16 15 30 15 13 0 38 12 55 26 25 21 31 33 31 66 0 21 -5 48
-10 59 -12 22 -61 49 -90 49 -11 0 -20 7 -20 15 0 9 -9 15 -25 15 -15 0 -25
-6 -25 -14z m0 -116 c0 -65 -8 -72 -48 -44 -43 30 -17 97 41 103 4 1 7 -26 7
-59z m83 49 c43 -23 50 -68 15 -93 -40 -28 -48 -21 -48 44 0 33 3 60 6 60 3 0
15 -5 27 -11z"/>
<path d="M90 170 l0 -120 66 0 c91 0 124 19 124 73 0 46 -31 67 -101 67 l-60
0 3 33 3 32 73 3 c52 2 72 6 69 15 -2 8 -34 13 -90 15 l-87 3 0 -121z m150
-30 c8 -14 8 -26 0 -40 -9 -16 -21 -20 -65 -20 l-55 0 0 40 0 40 55 0 c44 0
56 -4 65 -20z"/>
<path d="M340 170 c0 -98 3 -120 15 -120 8 0 41 36 75 79 33 44 65 83 70 86 6
4 10 -25 10 -79 0 -70 3 -86 15 -86 13 0 15 20 15 120 0 100 -3 120 -15 120
-8 0 -45 -41 -82 -90 l-68 -91 -3 91 c-2 71 -6 90 -17 90 -12 0 -15 -21 -15
-120z"/>
<path d="M617 283 c-4 -3 -7 -57 -7 -120 l0 -113 75 0 c67 0 79 3 100 25 14
13 25 34 25 45 0 11 -11 32 -25 45 -20 21 -34 25 -80 25 l-55 0 0 35 0 35 70
0 c56 0 70 3 70 15 0 12 -16 15 -83 15 -46 0 -87 -3 -90 -7z m147 -145 c19
-31 -4 -53 -63 -56 l-51 -3 0 41 0 41 51 -3 c36 -2 55 -8 63 -20z"/>
<path d="M876 244 c-3 -26 -6 -64 -6 -86 0 -46 -15 -78 -35 -78 -8 0 -15 -7
-15 -15 0 -20 44 -20 60 0 7 9 18 56 23 105 l11 90 48 0 48 0 0 -105 c0 -99 1
-105 20 -105 20 0 21 5 18 118 l-3 117 -81 3 -81 3 -7 -47z"/>
<path d="M1120 170 c0 -151 9 -154 100 -32 l65 86 3 -87 c2 -68 6 -87 17 -87
12 0 15 21 15 120 0 96 -3 120 -14 120 -8 0 -45 -41 -82 -92 l-69 -92 -3 92
c-2 73 -6 92 -17 92 -12 0 -15 -21 -15 -120z"/>
<path d="M1442 273 c-41 -20 -62 -59 -62 -114 0 -33 6 -47 34 -75 29 -29 41
-34 80 -34 61 0 99 21 120 64 21 45 20 74 -4 113 -36 59 -104 78 -168 46z
m125 -45 c16 -15 23 -33 23 -60 0 -83 -91 -119 -151 -59 -84 84 41 201 128
119z"/>
<path d="M1997 283 c-4 -3 -7 -57 -7 -120 l0 -113 29 0 c24 0 37 12 82 72 l54
73 3 -73 c3 -69 4 -72 27 -72 l25 0 0 120 c0 120 0 120 -24 120 -18 0 -37 -18
-80 -77 l-56 -78 0 78 c0 74 -1 77 -23 77 -13 0 -27 -3 -30 -7z"/>
<path d="M2295 213 c-8 -97 -13 -113 -31 -113 -8 0 -14 -4 -14 -9 0 -5 -3 -16
-6 -25 -5 -13 1 -16 30 -16 33 0 39 4 52 35 7 19 14 54 14 79 0 65 7 76 46 76
l34 0 0 -95 0 -95 30 0 30 0 0 120 0 120 -89 0 -89 0 -7 -77z"/>
</g>
</svg>
